<?xml version="1.0" standalone="no"?><!DOCTYPE svg PUBLIC "-//W3C//DTD SVG 1.1//EN" "http://www.w3.org/Graphics/SVG/1.1/DTD/svg11.dtd"><svg t="1775114794710" class="icon" viewBox="0 0 1024 1024" version="1.1" xmlns="http://www.w3.org/2000/svg" p-id="6948" xmlns:xlink="http://www.w3.org/1999/xlink" width="256" height="256"><path d="M577.173333 138.666667v38.986666A92.8 92.8 0 0 0 629.333333 260.693333a276.106667 276.106667 0 0 1 37.92 22.293334 91.733333 91.733333 0 0 0 99.04 4.266666l32.693334-19.04 65.706666 114.773334-33.493333 19.52a92.693333 92.693333 0 0 0-45.386667 87.413333c0.693333 7.84 1.013333 15.093333 1.013334 22.08s-0.32 14.24-1.013334 22.08a92.693333 92.693333 0 0 0 45.386667 87.413333l33.493333 19.52-65.706666 114.773334-32.693334-19.04a91.733333 91.733333 0 0 0-99.04 4.266666 276.106667 276.106667 0 0 1-37.92 22.293334 92.8 92.8 0 0 0-52.266666 83.04V885.333333H446.826667v-38.986666A92.8 92.8 0 0 0 394.666667 763.306667a276.106667 276.106667 0 0 1-37.92-22.293334 91.733333 91.733333 0 0 0-99.04-4.266666l-32.693334 19.04-65.813333-114.773334 33.493333-19.52a92.693333 92.693333 0 0 0 45.386667-87.413333c-0.693333-7.84-1.013333-15.093333-1.013333-22.08s0.32-14.24 1.013333-22.08a92.693333 92.693333 0 0 0-45.386667-87.413333l-33.493333-19.52 65.706667-114.773334 32.693333 19.04a91.733333 91.733333 0 0 0 99.04-4.266666A276.106667 276.106667 0 0 1 394.666667 260.693333a92.8 92.8 0 0 0 52.266666-83.04V138.666667h130.346667M512 692.48a182.08 182.08 0 0 0 40.426667-4.533333 178.826667 178.826667 0 0 0 134.666666-135.573334 181.333333 181.333333 0 0 0-35.36-153.653333A178.453333 178.453333 0 0 0 512 331.52a182.08 182.08 0 0 0-40.426667 4.533333 178.826667 178.826667 0 0 0-134.666666 135.573334 181.333333 181.333333 0 0 0 35.36 153.653333 178.453333 178.453333 0 0 0 139.733333 67.2M634.666667 64H389.6a17.546667 17.546667 0 0 0-17.44 17.6v96a17.546667 17.546667 0 0 1-10.026667 16 352.746667 352.746667 0 0 0-48.32 28.373333 17.6 17.6 0 0 1-9.813333 3.093334 17.013333 17.013333 0 0 1-8.533333-2.346667l-82.666667-48a17.12 17.12 0 0 0-8.693333-2.4A17.386667 17.386667 0 0 0 188.746667 181.333333l-122.666667 213.866667a17.706667 17.706667 0 0 0 6.4 24.053333l82.346667 48a17.493333 17.493333 0 0 1 8.533333 16.746667c-0.746667 9.333333-1.226667 18.72-1.226667 28.266667s0.48 18.933333 1.226667 28.266666a17.6 17.6 0 0 1-8.533333 16.746667l-82.346667 48a17.706667 17.706667 0 0 0-6.4 24.053333l122.666667 213.866667a17.333333 17.333333 0 0 0 15.093333 8.8 17.066667 17.066667 0 0 0 8.693333-2.346667l82.666667-48a16.48 16.48 0 0 1 8.533333-2.346666 17.6 17.6 0 0 1 10.08 3.253333 352.746667 352.746667 0 0 0 48.32 28.373333 17.546667 17.546667 0 0 1 10.026667 16v96a17.546667 17.546667 0 0 0 17.44 17.6H634.666667a17.546667 17.546667 0 0 0 17.44-17.6v-96a17.546667 17.546667 0 0 1 10.026666-16 352.746667 352.746667 0 0 0 48.32-28.373333 17.6 17.6 0 0 1 10.08-3.253333 16.48 16.48 0 0 1 8.533334 2.346666l82.666666 48a17.066667 17.066667 0 0 0 8.693334 2.346667 17.333333 17.333333 0 0 0 15.093333-8.8l122.133333-213.866667a17.706667 17.706667 0 0 0-6.4-24.053333l-82.346666-48a17.6 17.6 0 0 1-8.533334-16.746667c0.746667-9.333333 1.226667-18.72 1.226667-28.266666s-0.48-18.933333-1.226667-28.266667a17.493333 17.493333 0 0 1 8.533334-16.746667l82.346666-48a17.706667 17.706667 0 0 0 6.4-24.053333L835.253333 181.333333a17.386667 17.386667 0 0 0-15.093333-8.853333 17.12 17.12 0 0 0-8.693333 2.4l-82.666667 48a17.013333 17.013333 0 0 1-8.533333 2.346667 17.6 17.6 0 0 1-10.08-3.253334 352.746667 352.746667 0 0 0-48.32-28.373333 17.546667 17.546667 0 0 1-10.026667-16v-96A17.546667 17.546667 0 0 0 634.666667 64zM512 617.813333a105.973333 105.973333 0 0 1-24-208.96 109.973333 109.973333 0 0 1 24-2.666666 105.973333 105.973333 0 0 1 24 208.96 109.973333 109.973333 0 0 1-24 2.666666z" p-id="6949" fill="#2c2c2c"></path></svg>