<?xml version="1.0" standalone="no"?><!DOCTYPE svg PUBLIC "-//W3C//DTD SVG 1.1//EN" "http://www.w3.org/Graphics/SVG/1.1/DTD/svg11.dtd"><svg t="1768805104854" class="icon" viewBox="0 0 1024 1024" version="1.1" xmlns="http://www.w3.org/2000/svg" p-id="6736" xmlns:xlink="http://www.w3.org/1999/xlink" width="256" height="256"><path d="M881.777778 1024H142.222222a56.888889 56.888889 0 0 1-56.888889-56.888889V56.888889a56.888889 56.888889 0 0 1 56.888889-56.888889h739.555556a56.888889 56.888889 0 0 1 56.888889 56.888889v910.222222a56.888889 56.888889 0 0 1-56.888889 56.888889z m0-938.666667a28.444444 28.444444 0 0 0-28.444445-28.444444H170.666667a28.444444 28.444444 0 0 0-28.444445 28.444444v853.333334a28.444444 28.444444 0 0 0 28.444445 28.444444h682.666666a28.444444 28.444444 0 0 0 28.444445-28.444444V85.333333z" fill="#000000" p-id="6737"></path><path d="M227.555556 512h284.444444v56.888889H227.555556zM227.555556 711.111111h483.555555v56.888889H227.555556z" fill="#000000" p-id="6738"></path></svg>